<svg width="54" height="48" viewBox="0 0 54 48" fill="none" xmlns="http://www.w3.org/2000/svg">
<path fill-rule="evenodd" clip-rule="evenodd" d="M52.2273 27.6926C53.0039 27.6926 53.6391 28.3155 53.6391 29.0768V45.69C53.6391 46.4513 53.0039 47.0742 52.2273 47.0742C51.4511 47.0742 50.8159 46.4513 50.8159 45.69V29.0768C50.8159 28.3155 51.4511 27.6926 52.2273 27.6926V27.6926ZM52.2273 22.1724C53.0069 22.1724 53.6391 22.792 53.6391 23.5566C53.6391 24.3212 53.0069 24.9409 52.2273 24.9409C51.4477 24.9409 50.8159 24.3212 50.8159 23.5566C50.8159 22.792 51.4477 22.1724 52.2273 22.1724Z" fill="#13B17C"/>
<path fill-rule="evenodd" clip-rule="evenodd" d="M23.9681 44.3007C24.9207 44.3007 25.8748 44.253 26.8194 44.1311C27.7001 44.017 28.2312 44.7622 28.2312 45.5153C28.2312 46.2684 27.6298 46.7944 26.8893 46.8981C25.9284 47.0327 24.9659 47.0685 23.9966 47.0696H23.9864C10.7414 47.0696 0 36.5231 0 23.5348C0 10.5367 10.7437 0 23.9966 0C37.2495 0 47.9929 10.5367 47.9929 23.5348V23.537C47.9929 24.2983 47.3577 24.9216 46.5815 24.9216H23.9962C23.22 24.9216 22.5849 24.2987 22.5849 23.537C22.5849 22.7757 23.22 22.1528 23.9962 22.1528H30.9125C30.258 18.994 27.4105 16.6165 23.9966 16.6165C20.0985 16.6165 16.9389 19.7157 16.9389 23.5389C16.9389 27.3617 20.0985 30.4609 23.9966 30.4609C24.4942 30.4609 24.9743 30.4124 25.408 30.3494C26.1793 30.2368 26.8198 30.9802 26.8198 31.7336C26.8198 32.4871 26.2306 33.0154 25.4757 33.1164C25.0165 33.1779 24.3311 33.2305 23.87 33.2241C18.4461 33.1514 14.1158 28.8663 14.1158 23.5348C14.1158 18.2036 18.5396 13.8439 23.9966 13.8439C28.9751 13.8439 33.0929 17.4554 33.7767 22.1528H38.0421C37.3351 15.1559 31.3166 9.69084 23.9966 9.69084C16.2007 9.69084 9.88085 15.8892 9.88085 23.5348C9.88085 31.1808 16.2007 37.3787 23.9966 37.3787V37.3832C24.7763 37.3832 25.408 38.0032 25.408 38.7675C25.408 39.5321 24.7763 40.1521 23.9966 40.1521C23.9521 40.1521 23.9084 40.1498 23.8651 40.1461C14.5708 40.0768 7.0577 32.6668 7.0577 23.5348C7.0577 14.3599 14.6415 6.92197 23.9966 6.92197C32.8766 6.92197 40.1601 13.6244 40.8763 22.1528H45.1218C44.3966 11.3286 35.2166 2.76886 23.9966 2.76886C12.303 2.76886 2.82315 12.066 2.82315 23.5348C2.82315 34.9942 12.2878 44.2854 23.9681 44.3007V44.3007Z" fill="#13B17C"/>
<path fill-rule="evenodd" clip-rule="evenodd" d="M38.1116 44.3062H38.1119C40.0494 44.3062 41.9371 43.7048 43.5047 42.5879C45.251 41.3028 46.8429 43.5467 45.3323 44.7054L45.3088 44.7233H45.3084C43.2318 46.2496 40.707 47.075 38.1119 47.075H38.1116C32.6542 47.075 28.2307 42.7363 28.2307 37.3842C28.2307 32.0321 32.6542 27.6934 38.1116 27.6934C43.5686 27.6934 47.9924 32.0321 47.9924 37.3842H47.992C47.992 38.1458 47.3569 38.7688 46.5807 38.7688H31.1949C31.8491 41.9284 34.6969 44.3062 38.1116 44.3062V44.3062ZM31.1949 35.9999C31.8491 32.8404 34.6969 30.4622 38.1116 30.4622C41.5262 30.4622 44.374 32.8404 45.0279 35.9999H31.1949V35.9999Z" fill="#13B17C"/>
</svg>
