<svg width="190" height="53" viewBox="0 0 190 53" fill="none" xmlns="http://www.w3.org/2000/svg">
<path d="M73.0769 17.8408H68.6158V20.9366H73.8514V22.8496H66.2923V11.2921H73.8359V13.221H68.6158V15.9755H73.0769V17.8408Z" fill="#13B17C"/>
<path d="M87.2564 25.6913H85.1111V22.8496H78.311V25.6834H76.1114L75.9875 20.9366H76.8394C77.2989 20.545 77.6526 19.9708 77.9005 19.2141C78.1535 18.4521 78.3239 17.5101 78.4116 16.3882L78.7369 11.2921H86.1256V20.9366H87.4423L87.2564 25.6913ZM79.5037 20.9366H83.8022V13.221H80.9443L80.7506 16.2612C80.5957 18.2986 80.1801 19.857 79.5037 20.9366Z" fill="#13B17C"/>
<path d="M97.0135 11.2921H99.3448V22.8496H97.0135V15.1737L92.4982 22.8496H90.1747V11.2921H92.4982V18.9839L97.0135 11.2921Z" fill="#13B17C"/>
<path d="M112.122 22.8496H109.799V17.8964H105.268V22.8496H102.945V11.2921H105.268V15.9755H109.799V11.2921H112.122V22.8496Z" fill="#13B17C"/>
<path d="M118.108 15.4595H119.92C121.247 15.4595 122.298 15.7902 123.072 16.4517C123.852 17.1079 124.242 17.9943 124.242 19.1109C124.242 20.2328 123.855 21.135 123.08 21.8177C122.311 22.495 121.286 22.839 120.005 22.8496H115.769V11.2921H118.108V15.4595ZM127.533 22.8496H125.21V11.2921H127.533V22.8496ZM118.108 17.3804V20.9366H119.959C120.553 20.9366 121.025 20.7699 121.376 20.4365C121.732 20.1031 121.911 19.656 121.911 19.095C121.911 18.5711 121.74 18.1584 121.399 17.8567C121.064 17.5498 120.602 17.391 120.013 17.3804H118.108Z" fill="#13B17C"/>
<path d="M137.926 11.2921H140.257V22.8496H137.926V15.1737L133.41 22.8496H131.087V11.2921H133.41V18.9839L137.926 11.2921ZM138.375 8.25195C138.375 8.95577 138.127 9.52465 137.631 9.95858C137.141 10.3925 136.495 10.6095 135.695 10.6095C134.895 10.6095 134.247 10.3952 133.751 9.96652C133.261 9.53788 133.015 8.96636 133.015 8.25195H134.603C134.603 8.58534 134.699 8.84464 134.89 9.02986C135.086 9.20978 135.354 9.29975 135.695 9.29975C136.031 9.29975 136.294 9.20978 136.485 9.02986C136.676 8.84464 136.772 8.58534 136.772 8.25195H138.375Z" fill="#13B17C"/>
<path d="M73.0537 30.2582H75.3849V41.8157H73.0537V34.1398L68.5383 41.8157H66.2148V30.2582H68.5383V37.95L73.0537 30.2582Z" fill="#13B17C"/>
<path d="M88.1626 41.8157H85.8391V36.8625H81.3083V41.8157H78.9848V30.2582H81.3083V34.9415H85.8391V30.2582H88.1626V41.8157Z" fill="#13B17C"/>
<path d="M98.4076 31.2902H98.5471C99.43 31.2902 100.228 31.4912 100.94 31.8934C101.658 32.2903 102.216 32.8565 102.613 33.5921C103.011 34.3277 103.21 35.1638 103.21 36.1005C103.21 37.4869 102.776 38.6194 101.908 39.4979C101.046 40.3763 99.8792 40.8155 98.4076 40.8155V42.292H96.1693V40.8155H96.0222C95.1289 40.8155 94.3235 40.6197 93.6058 40.2281C92.8881 39.8312 92.3304 39.2756 91.9328 38.5612C91.5404 37.8468 91.3442 37.0318 91.3442 36.1163C91.3442 35.1903 91.5404 34.3621 91.9328 33.6318C92.3252 32.9015 92.8751 32.3327 93.5825 31.9252C94.2899 31.5124 95.0799 31.3007 95.9525 31.2902H96.1693V29.782H98.4076V31.2902ZM96.0222 33.2667C95.2529 33.2667 94.6462 33.5154 94.2021 34.0128C93.7632 34.5103 93.5438 35.2114 93.5438 36.1163C93.5438 36.963 93.7632 37.6298 94.2021 38.1167C94.641 38.5982 95.258 38.839 96.0532 38.839H96.1693V33.2667H96.0222ZM98.4076 33.2667V38.839H98.5625C99.3215 38.839 99.9179 38.5956 100.352 38.1087C100.791 37.6166 101.01 36.9472 101.01 36.1005C101.01 35.2167 100.796 34.5235 100.367 34.0208C99.9386 33.518 99.3241 33.2667 98.5238 33.2667H98.4076Z" fill="#13B17C"/>
<path d="M115.584 36.2989C115.584 37.4367 115.388 38.4342 114.996 39.2915C114.603 40.1488 114.041 40.8102 113.307 41.2759C112.579 41.7416 111.743 41.9745 110.798 41.9745C109.864 41.9745 109.03 41.7443 108.296 41.2839C107.563 40.8235 106.995 40.1673 106.593 39.3153C106.19 38.458 105.986 37.4737 105.981 36.3624V35.7909C105.981 34.6531 106.179 33.653 106.577 32.7904C106.98 31.9225 107.545 31.2584 108.273 30.798C109.006 30.3323 109.843 30.0995 110.783 30.0995C111.722 30.0995 112.556 30.3323 113.284 30.798C114.017 31.2584 114.583 31.9225 114.98 32.7904C115.383 33.653 115.584 34.6505 115.584 35.783V36.2989ZM113.23 35.775C113.23 34.5632 113.018 33.6424 112.595 33.0127C112.172 32.3829 111.567 32.0681 110.783 32.0681C110.003 32.0681 109.401 32.3803 108.978 33.0047C108.555 33.6239 108.34 34.5341 108.335 35.7353V36.2989C108.335 37.479 108.547 38.3945 108.97 39.0454C109.394 39.6963 110.003 40.0218 110.798 40.0218C111.578 40.0218 112.177 39.7095 112.595 39.0851C113.013 38.4554 113.225 37.5399 113.23 36.3386V35.775Z" fill="#13B17C"/>
<path d="M121.183 37.7436V41.8157H118.859V30.2582H123.258C124.105 30.2582 124.848 30.417 125.489 30.7345C126.134 31.052 126.63 31.5045 126.976 32.0919C127.322 32.674 127.495 33.3381 127.495 34.0843C127.495 35.2167 127.115 36.1111 126.356 36.7672C125.602 37.4181 124.557 37.7436 123.219 37.7436H121.183ZM121.183 35.8147H123.258C123.873 35.8147 124.34 35.6665 124.66 35.3702C124.985 35.0738 125.148 34.6505 125.148 34.1001C125.148 33.5339 124.985 33.0762 124.66 32.7269C124.335 32.3776 123.886 32.1977 123.312 32.1871H121.183V35.8147Z" fill="#13B17C"/>
<path d="M133.72 30.2582L136.617 38.6406L139.498 30.2582H142.549V41.8157H140.218V38.6564L140.451 33.2032L137.407 41.8157H135.811L132.775 33.2111L133.008 38.6564V41.8157H130.684V30.2582H133.72Z" fill="#13B17C"/>
<path d="M152.671 39.4344H148.597L147.822 41.8157H145.352L149.549 30.2582H151.702L155.923 41.8157H153.453L152.671 39.4344ZM149.224 37.5055H152.043L150.626 33.1794L149.224 37.5055Z" fill="#13B17C"/>
<path d="M166.122 32.1871H162.668V41.8157H160.344V32.1871H156.936V30.2582H166.122V32.1871Z" fill="#13B17C"/>
<path d="M178.086 36.2989C178.086 37.4367 177.89 38.4342 177.498 39.2915C177.105 40.1488 176.543 40.8102 175.809 41.2759C175.081 41.7416 174.245 41.9745 173.3 41.9745C172.366 41.9745 171.532 41.7443 170.798 41.2839C170.065 40.8235 169.497 40.1673 169.095 39.3153C168.692 38.458 168.488 37.4737 168.483 36.3624V35.7909C168.483 34.6531 168.681 33.653 169.079 32.7904C169.482 31.9225 170.047 31.2584 170.775 30.798C171.508 30.3323 172.345 30.0995 173.285 30.0995C174.224 30.0995 175.058 30.3323 175.786 30.798C176.519 31.2584 177.085 31.9225 177.482 32.7904C177.885 33.653 178.086 34.6505 178.086 35.783V36.2989ZM175.732 35.775C175.732 34.5632 175.52 33.6424 175.097 33.0127C174.674 32.3829 174.069 32.0681 173.285 32.0681C172.505 32.0681 171.903 32.3803 171.48 33.0047C171.057 33.6239 170.842 34.5341 170.837 35.7353V36.2989C170.837 37.479 171.049 38.3945 171.472 39.0454C171.896 39.6963 172.505 40.0218 173.3 40.0218C174.08 40.0218 174.679 39.7095 175.097 39.0851C175.515 38.4554 175.727 37.5399 175.732 36.3386V35.775Z" fill="#13B17C"/>
<path d="M183.685 37.7436V41.8157H181.361V30.2582H185.76C186.607 30.2582 187.351 30.417 187.991 30.7345C188.636 31.052 189.132 31.5045 189.478 32.0919C189.824 32.674 189.997 33.3381 189.997 34.0843C189.997 35.2167 189.617 36.1111 188.858 36.7672C188.104 37.4181 187.059 37.7436 185.721 37.7436H183.685ZM183.685 35.8147H185.76C186.375 35.8147 186.842 35.6665 187.162 35.3702C187.487 35.0738 187.65 34.6505 187.65 34.1001C187.65 33.5339 187.487 33.0762 187.162 32.7269C186.837 32.3776 186.388 32.1977 185.814 32.1871H183.685V35.8147Z" fill="#13B17C"/>
<g clip-path="url(#clip0)">
<path fill-rule="evenodd" clip-rule="evenodd" d="M52.2273 29.2912C53.0039 29.2912 53.6391 29.9142 53.6391 30.6754V47.2886C53.6391 48.0499 53.0039 48.6729 52.2273 48.6729C51.4511 48.6729 50.8159 48.0499 50.8159 47.2886V30.6754C50.8159 29.9142 51.4511 29.2912 52.2273 29.2912ZM52.2273 23.771C53.0069 23.771 53.6391 24.3906 53.6391 25.1552C53.6391 25.9199 53.0069 26.5395 52.2273 26.5395C51.4477 26.5395 50.8159 25.9199 50.8159 25.1552C50.8159 24.3906 51.4477 23.771 52.2273 23.771Z" fill="#13B17C"/>
<path fill-rule="evenodd" clip-rule="evenodd" d="M23.9681 45.8993C24.9207 45.8993 25.8748 45.8516 26.8194 45.7297C27.7001 45.6156 28.2312 46.3609 28.2312 47.114C28.2312 47.867 27.6298 48.3931 26.8893 48.4967C25.9284 48.6313 24.9659 48.6671 23.9966 48.6682H23.9864C10.7414 48.6682 0 38.1218 0 25.1334C0 12.1354 10.7437 1.59863 23.9966 1.59863C37.2495 1.59863 47.9929 12.1354 47.9929 25.1334V25.1357C47.9929 25.8969 47.3577 26.5203 46.5815 26.5203H23.9962C23.22 26.5203 22.5849 25.8973 22.5849 25.1357C22.5849 24.3744 23.22 23.7514 23.9962 23.7514H30.9125C30.258 20.5926 27.4105 18.2152 23.9966 18.2152C20.0985 18.2152 16.9389 21.3143 16.9389 25.1375C16.9389 28.9603 20.0985 32.0595 23.9966 32.0595C24.4942 32.0595 24.9743 32.011 25.408 31.948C26.1793 31.8354 26.8198 32.5788 26.8198 33.3323C26.8198 34.0857 26.2306 34.614 25.4757 34.715C25.0165 34.7765 24.3311 34.8291 23.87 34.8228C18.4461 34.7501 14.1158 30.465 14.1158 25.1334C14.1158 19.8022 18.5396 15.4426 23.9966 15.4426C28.9751 15.4426 33.0929 19.054 33.7767 23.7514H38.0421C37.3351 16.7545 31.3166 11.2895 23.9966 11.2895C16.2007 11.2895 9.88085 17.4878 9.88085 25.1334C9.88085 32.7794 16.2007 38.9774 23.9966 38.9774V38.9818C24.7763 38.9818 25.408 39.6018 25.408 40.3661C25.408 41.1307 24.7763 41.7507 23.9966 41.7507C23.9522 41.7507 23.9084 41.7485 23.8651 41.7447C14.5708 41.6754 7.0577 34.2654 7.0577 25.1334C7.0577 15.9585 14.6415 8.52061 23.9966 8.52061C32.8766 8.52061 40.1601 15.223 40.8763 23.7514H45.1218C44.3966 12.9272 35.2166 4.3675 23.9966 4.3675C12.303 4.3675 2.82315 13.6646 2.82315 25.1334C2.82315 36.5929 12.2878 45.8841 23.9681 45.8993Z" fill="#13B17C"/>
<path fill-rule="evenodd" clip-rule="evenodd" d="M38.1116 45.9048H38.1119C40.0494 45.9048 41.9371 45.3034 43.5047 44.1865C45.251 42.9014 46.8429 45.1454 45.3323 46.3041L45.3088 46.322H45.3084C43.2318 47.8483 40.707 48.6737 38.1119 48.6737H38.1116C32.6542 48.6737 28.2307 44.3349 28.2307 38.9828C28.2307 33.6308 32.6542 29.292 38.1116 29.292C43.5686 29.292 47.9924 33.6308 47.9924 38.9828H47.992C47.992 39.7445 47.3569 40.3674 46.5807 40.3674H31.1949C31.8491 43.527 34.6969 45.9048 38.1116 45.9048ZM31.1949 37.5986C31.8491 34.439 34.6969 32.0609 38.1116 32.0609C41.5262 32.0609 44.374 34.439 45.0279 37.5986H31.1949Z" fill="#13B17C"/>
</g>
<defs>
<clipPath id="clip0">
<rect width="53.6388" height="52.6073" fill="white"/>
</clipPath>
</defs>
</svg>
