<svg width="27" height="26" viewBox="0 0 27 26" fill="none" xmlns="http://www.w3.org/2000/svg">
<path fill-rule="evenodd" clip-rule="evenodd" d="M8.8063 2.08779C4.94612 2.66136 2 5.9761 2 9.99998C2 14.4297 5.57031 18 10 18C12.8611 18 15.3636 16.5106 16.7772 14.2622L18.214 15.699C18.0672 15.9095 17.9124 16.1141 17.75 16.3125L25.7188 24.2812L24.2812 25.7187L16.3125 17.75C14.5898 19.1601 12.3945 20 10 20C4.48828 20 0 15.5117 0 9.99998C0 4.67987 4.18165 0.313276 9.42904 0.0161133C9.12934 0.664651 8.91681 1.36043 8.8063 2.08779Z" fill="#050C42"/>
<path fill-rule="evenodd" clip-rule="evenodd" d="M13.373 7.11192L13.3854 7.12377L18.7871 12.5411L19.5 13.254L20.2134 12.5405L25.6107 7.12773L25.618 7.12105C25.6298 7.11022 25.6459 7.09517 25.6657 7.07607C25.7053 7.03792 25.7599 6.98342 25.8244 6.91404C25.9532 6.77574 26.1241 6.57576 26.2953 6.3258C26.6327 5.83331 27 5.10518 27 4.25C27 1.92672 25.0962 0 22.75 0C21.2031 0 20.1055 0.74766 19.5 1.27955C18.8945 0.74766 17.7969 0 16.25 0C13.9038 0 12 1.92672 12 4.25C12 5.11292 12.3893 5.83322 12.7101 6.31027C12.8765 6.55768 13.0442 6.75977 13.1706 6.90037C13.234 6.97095 13.2877 7.02679 13.3265 7.06589C13.3459 7.08545 13.3616 7.10088 13.373 7.11192ZM19.5 4.1276L20.2416 3.29326L20.2472 3.28759C20.2555 3.27915 20.2687 3.26584 20.2866 3.24836C20.3225 3.21336 20.3767 3.16183 20.4468 3.09928C20.5877 2.97373 20.7899 2.80625 21.0342 2.63947C21.5365 2.29644 22.1531 2 22.75 2C23.993 2 25 3.02188 25 4.25C25 4.34876 24.968 4.48798 24.8936 4.66253C24.8211 4.83242 24.7206 5.00788 24.6134 5.17098C24.507 5.33283 24.3998 5.4741 24.3188 5.57507C24.2786 5.62528 24.2454 5.66486 24.2228 5.69127L24.1983 5.71961L19.5 10.4179L14.7911 5.70887L14.7845 5.70254L14.7838 5.70184L14.7793 5.6974C14.7745 5.69257 14.7664 5.68445 14.7556 5.67324C14.7339 5.65079 14.7014 5.61615 14.6616 5.57093C14.5816 5.47997 14.4747 5.34891 14.3685 5.19036C14.1467 4.85958 14 4.4896 14 4.25C14 3.02188 15.007 2 16.25 2C16.8469 2 17.4635 2.29644 17.9658 2.63947C18.2101 2.80625 18.4123 2.97373 18.5532 3.09928C18.6233 3.16183 18.6775 3.21336 18.7134 3.24836C18.7313 3.26584 18.7445 3.27915 18.7528 3.28759L18.7584 3.29326L19.5 4.1276Z" fill="#050C42"/>
</svg>
